# xmcd CD database file
#
# Track frame offsets:
#	150
#	13682
#	26182
#	40685
#	55237
#	69772
#	82102
#	94567
#	107835
#	122160
#	136157
#	151310
#	166505
#	180692
#	193737
#	208500
#	222765
#	237447
#	251820
#	265552
#	277505
#	290147
#	304135
#	317717
#	329125
#	340372
#
# Disc length: 4697 seconds
#
# Revision: 0
# Processed by: cddbd v1.5.2PL0 Copyright (c) Steve Scherf et al.
# Submitted via: CDex 1.70beta2
#
DISCID=7712571a
DTITLE=Ted Lewis - 1929-1934 - Timeless
DYEAR=1929
DGENRE=Jazz
TTITLE0=You've Got that Thing
TTITLE1=Harmonica Harry
TTITLE2=Old Playmate
TTITLE3=An Ev'ning in Caroline
TTITLE4=My Woman!
TTITLE5=Sweet Sue-Just You
TTITLE6=Somebody Loves You
TTITLE7=There's a New Day Comin'
TTITLE8=There's a Ring Around My Rainbow
TTITLE9=Buy American!
TTITLE10=Try a Little Tenderness
TTITLE11=The Gold Diggers' Song
TTITLE12=Stormy Weather
TTITLE13=It's Sunday Down in Caroline
TTITLE14=Lazybones
TTITLE15=Rhythm
TTITLE16=Night and Day
TTITLE17=Ten Thousand Years Ago
TTITLE18=Jazznochracy
TTITLE19=White Heat
TTITLE20=Pop! Goes Your Heart
TTITLE21=A There's Gonna Be a Wedding in the Band
TTITLE22=Sweetie Pie
TTITLE23=I Got a New Deal in Love
TTITLE24=Earthquake
TTITLE25=I Can Sew a Button
EXTD=YEAR: 1929
EXTT0=
EXTT1=
EXTT2=
EXTT3=
EXTT4=
EXTT5=
EXTT6=
EXTT7=
EXTT8=
EXTT9=
EXTT10=
EXTT11=
EXTT12=
EXTT13=
EXTT14=
EXTT15=
EXTT16=
EXTT17=
EXTT18=
EXTT19=
EXTT20=
EXTT21=
EXTT22=
EXTT23=
EXTT24=
EXTT25=
PLAYORDER=
